<svg width="151" height="83" viewBox="0 0 151 83" fill="none" xmlns="http://www.w3.org/2000/svg">
<mask id="path-1-outside-1_10_43" maskUnits="userSpaceOnUse" x="20" y="0" width="80" height="47" fill="black">
<rect fill="white" x="20" width="80" height="47"/>
<path d="M59.9364 44H59.9788Z"/>
<path d="M47.959 34.3379C51.1359 31.7758 55.4442 30.3365 59.9364 30.3365C64.4286 30.3365 68.7369 31.7758 71.9138 34.3379"/>
<path d="M35.9774 24.6723C39.1237 22.134 42.859 20.1206 46.9699 18.7469C51.0808 17.3732 55.4868 16.6662 59.9365 16.6662C64.3861 16.6662 68.7922 17.3732 72.9031 18.7469C77.014 20.1206 80.7493 22.134 83.8955 24.6723"/>
<path d="M24 15.0102C43.8466 -1.0034 76.0264 -1.0034 96 15.0102Z"/>
</mask>
<path d="M59.9364 41C58.2796 41 56.9364 42.3431 56.9364 44C56.9364 45.6569 58.2796 47 59.9364 47V44V41ZM59.9788 47C61.6356 47 62.9788 45.6569 62.9788 44C62.9788 42.3431 61.6356 41 59.9788 41V44V47ZM46.0757 32.0026C44.786 33.0427 44.5837 34.9314 45.6237 36.2211C46.6638 37.5108 48.5525 37.7132 49.8422 36.6731L47.959 34.3379L46.0757 32.0026ZM70.0306 36.6731C71.3203 37.7132 73.209 37.5108 74.249 36.2211C75.2891 34.9314 75.0868 33.0427 73.7971 32.0026L71.9138 34.3379L70.0306 36.6731ZM34.0938 22.3374C32.8042 23.3777 32.6022 25.2664 33.6425 26.5559C34.6828 27.8455 36.5716 28.0475 37.8611 27.0072L35.9774 24.6723L34.0938 22.3374ZM82.0119 27.0072C83.3014 28.0475 85.1901 27.8455 86.2305 26.5559C87.2708 25.2664 87.0687 23.3777 85.7792 22.3374L83.8955 24.6723L82.0119 27.0072ZM22.1162 12.6754C20.8267 13.7158 20.6248 15.6046 21.6652 16.894C22.7057 18.1835 24.5944 18.3854 25.8838 17.345L24 15.0102L22.1162 12.6754ZM94.1234 17.3508C95.4161 18.3872 97.3042 18.1794 98.3406 16.8868C99.377 15.5941 99.1693 13.706 97.8766 12.6696L96 15.0102L94.1234 17.3508ZM59.9364 44V47H59.9788V44V41H59.9364V44ZM47.959 34.3379L49.8422 36.6731C52.4313 34.5852 56.056 33.3365 59.9364 33.3365V30.3365V27.3365C54.8324 27.3365 49.8406 28.9664 46.0757 32.0026L47.959 34.3379ZM59.9364 30.3365V33.3365C63.8168 33.3365 67.4415 34.5852 70.0306 36.6731L71.9138 34.3379L73.7971 32.0026C70.0322 28.9664 65.0404 27.3365 59.9364 27.3365V30.3365ZM35.9774 24.6723L37.8611 27.0072C40.7098 24.709 44.124 22.8609 47.9207 21.5922L46.9699 18.7469L46.0191 15.9016C41.5939 17.3803 37.5376 19.5591 34.0938 22.3374L35.9774 24.6723ZM46.9699 18.7469L47.9207 21.5922C51.7169 20.3237 55.8013 19.6662 59.9365 19.6662V16.6662V13.6662C55.1724 13.6662 50.4447 14.4227 46.0191 15.9016L46.9699 18.7469ZM59.9365 16.6662V19.6662C64.0716 19.6662 68.1561 20.3237 71.9523 21.5922L72.9031 18.7469L73.8539 15.9016C69.4283 14.4227 64.7006 13.6662 59.9365 13.6662V16.6662ZM72.9031 18.7469L71.9523 21.5922C75.749 22.8609 79.1632 24.709 82.0119 27.0072L83.8955 24.6723L85.7792 22.3374C82.3353 19.5591 78.2791 17.3803 73.8539 15.9016L72.9031 18.7469ZM24 15.0102L25.8838 17.345C44.6277 2.22117 75.2429 2.21358 94.1234 17.3508L96 15.0102L97.8766 12.6696C76.8098 -4.22037 43.0655 -4.22796 22.1162 12.6754L24 15.0102Z" fill="#5E0067" mask="url(#path-1-outside-1_10_43)"/>
<path d="M20.4749 55.8081C20.4749 56.1467 20.3056 56.316 19.9671 56.316C19.8245 56.316 19.6819 56.3071 19.5394 56.2892C19.3968 56.2714 19.2543 56.2625 19.1117 56.2625C19.0404 56.2625 18.9602 56.2714 18.8711 56.2892C18.782 56.2892 18.6929 56.2892 18.6038 56.2892C18.4256 56.2892 18.3098 56.4051 18.2564 56.6367C18.2029 56.8506 18.1762 57.0911 18.1762 57.3584C18.1762 57.6079 18.1762 57.7861 18.1762 57.893V74.5456C18.1762 74.6703 18.1584 74.7773 18.1227 74.8664C18.1049 74.9555 18.0158 75.0089 17.8554 75.0267C17.6059 75.0624 17.3386 75.0713 17.0535 75.0535C16.7684 75.0535 16.5011 75.0624 16.2516 75.0802C16.1091 74.6169 15.9041 74.1714 15.6369 73.7437C15.3874 73.316 15.1201 72.9062 14.835 72.5141C13.1955 70.1263 11.4581 67.8186 9.62268 65.5912C7.80506 63.3637 6.05872 61.0738 4.38366 58.7216C4.38366 61.1273 4.37475 63.533 4.35693 65.9386C4.35693 68.3265 4.35693 70.7233 4.35693 73.1289C4.35693 73.2893 4.37475 73.4942 4.41039 73.7437C4.46385 73.9754 4.5975 74.0912 4.81134 74.0912C5.06082 74.0912 5.31029 74.0823 5.55977 74.0645C5.82707 74.0466 6.07654 74.0377 6.3082 74.0377C6.45076 74.0377 6.53986 74.109 6.5755 74.2516C6.62896 74.3763 6.65569 74.4832 6.65569 74.5723C6.65569 74.6971 6.62005 74.8129 6.54877 74.9198C6.49531 75.0267 6.3973 75.0802 6.25474 75.0802C5.9518 75.0802 5.64887 75.0624 5.34593 75.0267C5.043 74.9911 4.74006 74.9733 4.43712 74.9733C4.02727 74.9733 3.6085 74.9822 3.18083 75C2.75316 75 2.33439 75.0178 1.92454 75.0535C1.76416 75.0713 1.60378 75.0802 1.4434 75.0802C1.30084 75.098 1.15829 75.1069 1.01573 75.1069C0.659332 75.1069 0.481134 74.9198 0.481134 74.5456C0.481134 74.403 0.534593 74.2872 0.641512 74.1981C0.748431 74.0912 0.864259 74.0377 0.988998 74.0377C1.1672 74.0377 1.33648 74.0556 1.49686 74.0912C1.65724 74.109 1.82653 74.1179 2.00472 74.1179C2.27202 74.1179 2.46804 74.0823 2.59278 74.011C2.73534 73.9219 2.80661 73.717 2.80661 73.3962C2.80661 70.9371 2.82443 68.478 2.86007 66.0188C2.91353 63.5597 2.94026 61.1006 2.94026 58.6414C2.94026 58.4098 2.94026 58.187 2.94026 57.9732C2.94026 57.7594 2.94026 57.5366 2.94026 57.305C2.94026 57.0733 2.89571 56.8416 2.80661 56.61C2.73534 56.3783 2.55714 56.2625 2.27202 56.2625C2.05818 56.2625 1.83544 56.2714 1.60378 56.2892C1.38994 56.3071 1.1672 56.316 0.935538 56.316C0.632602 56.316 0.481134 56.1467 0.481134 55.8081C0.481134 55.4873 0.641512 55.327 0.962268 55.327C1.42558 55.327 1.8889 55.3359 2.35221 55.3537C2.81552 55.3715 3.26993 55.3804 3.71542 55.3804C4.12528 55.3804 4.53513 55.3804 4.94499 55.3804C5.37266 55.3626 5.79143 55.3537 6.20128 55.3537C7.25265 56.7793 8.35747 58.1603 9.51576 59.4968C10.6919 60.8155 11.8145 62.1787 12.8837 63.5864C13.5074 64.424 14.14 65.2615 14.7815 66.099C15.423 66.9366 16.0734 67.7652 16.7328 68.5849C16.7328 66.696 16.7328 64.8071 16.7328 62.9182C16.7506 61.0293 16.7595 59.1404 16.7595 57.2515C16.7595 57.0911 16.7328 56.8951 16.6793 56.6635C16.6437 56.414 16.51 56.2892 16.2784 56.2892H15.5567C15.4497 56.2892 15.3428 56.3071 15.2359 56.3427C15.129 56.3605 15.0221 56.3694 14.9152 56.3694C14.5766 56.3694 14.4073 56.1823 14.4073 55.8081C14.4073 55.5943 14.4697 55.4695 14.5944 55.4339C14.7191 55.3804 14.8706 55.3537 15.0488 55.3537C15.4052 55.3537 15.7527 55.3626 16.0913 55.3804C16.4477 55.3982 16.7951 55.4072 17.1337 55.4072C17.597 55.4072 18.0603 55.3893 18.5237 55.3537C19.0048 55.3181 19.477 55.3002 19.9403 55.3002C20.0829 55.3002 20.2076 55.3537 20.3145 55.4606C20.4215 55.5497 20.4749 55.6655 20.4749 55.8081ZM30.9603 65.6179C30.9603 65.2615 30.9424 64.8338 30.9068 64.3349C30.8712 63.8359 30.7821 63.3548 30.6395 62.8915C30.5148 62.4103 30.3098 62.0094 30.0247 61.6886C29.7396 61.3679 29.3476 61.2075 28.8486 61.2075C28.3675 61.2075 27.9398 61.3679 27.5656 61.6886C27.2092 61.9916 26.9063 62.3836 26.6568 62.8647C26.4073 63.328 26.2113 63.8181 26.0687 64.3349C25.9262 64.8338 25.8193 65.2793 25.748 65.6713C26.0509 65.6713 26.3449 65.6803 26.6301 65.6981C26.933 65.6981 27.227 65.6981 27.5121 65.6981C28.6704 65.6981 29.8198 65.6713 30.9603 65.6179ZM34.8093 71.5251C34.8093 71.5786 34.7915 71.6588 34.7559 71.7657C34.7381 71.8548 34.7113 71.9261 34.6757 71.9795C34.5509 72.2647 34.3193 72.5943 33.9807 72.9685C33.6421 73.3249 33.3392 73.6011 33.0719 73.7972C31.878 74.706 30.4969 75.1604 28.9288 75.1604C27.521 75.1604 26.3004 74.8664 25.2668 74.2783C24.2333 73.6724 23.4403 72.8349 22.8879 71.7657C22.3355 70.6965 22.0593 69.467 22.0593 68.077C22.0593 66.6871 22.3266 65.4308 22.8612 64.3081C23.4136 63.1677 24.1977 62.2678 25.2134 61.6084C26.2469 60.9313 27.4854 60.5927 28.9288 60.5927C30.586 60.5927 31.9136 61.0471 32.9115 61.9559C33.9094 62.8647 34.4084 64.1656 34.4084 65.8585C34.4084 66.3218 34.1945 66.5534 33.7669 66.5534C32.9828 66.5534 32.1987 66.5445 31.4147 66.5267C30.6306 66.5089 29.8465 66.5 29.0625 66.5C28.4922 66.5 27.922 66.5 27.3518 66.5C26.7815 66.5 26.2113 66.5089 25.6411 66.5267C25.5876 67.0613 25.5609 67.6048 25.5609 68.1572C25.5609 68.6562 25.6232 69.2442 25.748 69.9214C25.8905 70.5985 26.0955 71.2578 26.3628 71.8994C26.6479 72.5409 27.0132 73.0755 27.4587 73.5031C27.9042 73.913 28.4477 74.1179 29.0892 74.1179C29.8911 74.1179 30.5593 74.0021 31.0939 73.7704C31.6463 73.5388 32.1364 73.2091 32.564 72.7814C32.9917 72.3538 33.4283 71.8459 33.8738 71.2578C33.9273 71.1866 33.9807 71.1331 34.0342 71.0975C34.1054 71.044 34.1856 71.0173 34.2747 71.0173C34.3995 71.0173 34.5153 71.0707 34.6222 71.1777C34.747 71.2668 34.8093 71.3826 34.8093 71.5251ZM50.8183 74.6258C50.8183 74.9109 50.6758 75.0535 50.3906 75.0535C50.0164 75.0535 49.6422 75.0445 49.268 75.0267C48.8938 75.0089 48.5196 75 48.1453 75C47.8068 75 47.4682 75.0089 47.1296 75.0267C46.8089 75.0445 46.4881 75.0535 46.1673 75.0535C45.9892 75.0535 45.8733 75.0267 45.8199 74.9733C45.7842 74.9198 45.7308 74.8307 45.6595 74.706C45.4635 74.2961 45.2496 73.8952 45.018 73.5031C44.8041 73.1111 44.5814 72.7191 44.3497 72.327C44.0468 71.7568 43.726 71.1866 43.3875 70.6163C43.0667 70.0461 42.737 69.4848 42.3985 68.9324C41.8461 69.7521 41.2936 70.5629 40.7412 71.3648C40.2066 72.1667 39.681 72.9864 39.1642 73.8239C39.0751 73.9665 38.9949 74.109 38.9236 74.2516C38.8702 74.3941 38.8078 74.5456 38.7365 74.706C38.6474 74.902 38.4781 75 38.2286 75C37.997 75 37.7564 75 37.5069 75C37.2575 74.9822 37.008 74.9733 36.7585 74.9733C36.5803 74.9733 36.4021 74.9822 36.2239 75C36.0635 75.0178 35.8853 75.0267 35.6893 75.0267C35.618 75.0267 35.5468 74.9911 35.4755 74.9198C35.422 74.8307 35.3953 74.7505 35.3953 74.6792C35.3953 74.4832 35.4666 74.3763 35.6091 74.3585C35.7695 74.3407 35.921 74.3318 36.0635 74.3318C36.313 74.3318 36.5179 74.3139 36.6783 74.2783C36.8387 74.2427 37.0169 74.1447 37.2129 73.9843C37.4802 73.7704 37.8277 73.414 38.2554 72.9151C38.683 72.3983 39.1285 71.837 39.5919 71.2311C40.0552 70.6252 40.4828 70.0461 40.8749 69.4937C41.2669 68.9413 41.552 68.5047 41.7302 68.1839C41.2847 67.4355 40.8214 66.6871 40.3403 65.9386C39.8591 65.1902 39.378 64.4596 38.8969 63.7468C38.7187 63.4439 38.5316 63.1498 38.3356 62.8647C38.1395 62.5796 37.9257 62.2945 37.694 62.0094C37.6049 61.9025 37.5069 61.8401 37.4 61.8223C37.2931 61.7866 37.1684 61.7688 37.0258 61.7688C36.8476 61.7688 36.6694 61.7866 36.4912 61.8223C36.313 61.8401 36.1348 61.849 35.9566 61.849C35.8675 61.849 35.7784 61.8134 35.6893 61.7421C35.618 61.653 35.5824 61.5639 35.5824 61.4748C35.5824 61.261 35.6804 61.1273 35.8764 61.0738C36.0724 61.0204 36.2596 60.9937 36.4378 60.9937C37.0258 60.9224 37.6584 60.8333 38.3356 60.7264C39.0305 60.6016 39.6542 60.5393 40.2066 60.5393C40.4739 60.5393 40.6699 60.6462 40.7947 60.86C40.8838 60.9847 40.964 61.1362 41.0353 61.3144C41.1065 61.4748 41.1778 61.6263 41.2491 61.7688C41.6589 62.5351 42.0866 63.3013 42.5321 64.0676C42.9954 64.816 43.4409 65.5733 43.8686 66.3396C44.0112 66.1436 44.2339 65.8228 44.5368 65.3773C44.8576 64.914 45.1873 64.424 45.5258 63.9072C45.8644 63.3726 46.1584 62.8915 46.4079 62.4638C46.6574 62.0183 46.7821 61.7243 46.7821 61.5817C46.7821 61.457 46.7643 61.3768 46.7287 61.3411C46.7109 61.3055 46.6396 61.2877 46.5148 61.2877C46.3901 61.2877 46.2564 61.2966 46.1139 61.3144C45.9892 61.3144 45.8555 61.3144 45.7129 61.3144C45.4278 61.3144 45.2853 61.1629 45.2853 60.86C45.2853 60.7709 45.3209 60.6996 45.3922 60.6462C45.4813 60.5927 45.5615 60.566 45.6328 60.566C46.0248 60.566 46.4079 60.5749 46.7821 60.5927C47.1742 60.6105 47.5662 60.6194 47.9582 60.6194C48.3325 60.6194 48.7156 60.6194 49.1076 60.6194C49.4996 60.6016 49.8828 60.5927 50.257 60.5927C50.4886 60.5927 50.6045 60.7174 50.6045 60.9669C50.6045 61.1986 50.5154 61.3233 50.3372 61.3411C50.159 61.3411 49.9808 61.3411 49.8026 61.3411C49.6778 61.3411 49.5353 61.3501 49.3749 61.3679C49.2145 61.3857 49.0809 61.4302 48.974 61.5015C48.7601 61.6441 48.573 61.8134 48.4126 62.0094C47.7533 62.8291 47.0762 63.6755 46.3812 64.5487C45.6862 65.4219 45.0536 66.2772 44.4834 67.1147C44.8754 67.7384 45.2674 68.371 45.6595 69.0126C46.0693 69.6362 46.4703 70.2599 46.8623 70.8836C47.1474 71.3291 47.4415 71.7568 47.7444 72.1667C48.0473 72.5765 48.3503 72.9864 48.6532 73.3962C48.7958 73.5744 48.9294 73.7348 49.0542 73.8774C49.1967 74.0021 49.3749 74.1001 49.5887 74.1714C49.7313 74.207 49.9006 74.2248 50.0966 74.2248C50.2926 74.2248 50.4619 74.2516 50.6045 74.305C50.747 74.3407 50.8183 74.4476 50.8183 74.6258ZM67.2107 74.011C67.2107 74.1536 67.1216 74.2783 66.9434 74.3852C66.4623 74.7238 66.0168 74.9287 65.6069 75C65.1971 75.0713 64.707 75.1069 64.1368 75.1069C63.5844 75.1069 63.1121 74.8753 62.7201 74.4119C62.3459 73.9486 62.1142 73.4675 62.0251 72.9685C61.5084 73.6813 60.8936 74.2337 60.1808 74.6258C59.4858 75 58.6928 75.1871 57.8019 75.1871C56.0912 75.1871 54.8794 74.7951 54.1666 74.011C53.4538 73.2091 53.0974 71.9706 53.0974 70.2956V68.5047C53.0974 67.5781 53.0974 66.6603 53.0974 65.7515C53.1153 64.8249 53.1242 63.8983 53.1242 62.9717C53.1242 62.7756 53.0974 62.5618 53.044 62.3301C52.9905 62.0985 52.8301 61.9827 52.5628 61.9827C52.4559 61.9827 52.349 61.9916 52.2421 62.0094C52.153 62.0272 52.055 62.0361 51.9481 62.0361C51.8233 62.0361 51.6808 62.0183 51.5204 61.9827C51.36 61.947 51.2798 61.849 51.2798 61.6886C51.2798 61.5461 51.3065 61.4481 51.36 61.3946C51.4313 61.3411 51.5204 61.3055 51.6273 61.2877C51.8233 61.2342 52.0372 61.1986 52.2688 61.1808C52.5005 61.1629 52.7143 61.1451 52.9103 61.1273C53.8904 61.0026 54.8972 60.8155 55.9308 60.566C56.0377 60.5303 56.1357 60.5125 56.2248 60.5125C56.4743 60.5125 56.599 60.6284 56.599 60.86C56.599 62.3925 56.5812 63.9339 56.5456 65.4842C56.5099 67.0167 56.4921 68.5492 56.4921 70.0817C56.4921 70.5094 56.501 70.9638 56.5188 71.445C56.5545 71.9083 56.6347 72.3449 56.7594 72.7547C56.902 73.1646 57.1336 73.4942 57.4544 73.7437C57.7751 73.9932 58.2206 74.1179 58.7908 74.1179C59.3967 74.1179 59.9491 73.8863 60.4481 73.4229C60.947 72.9418 61.3123 72.4518 61.544 71.9528C61.5618 71.9172 61.5975 71.837 61.6509 71.7123C61.7044 71.5697 61.7311 71.4895 61.7311 71.4717C61.7311 70.0461 61.7222 68.6294 61.7044 67.2217C61.7044 65.7961 61.7044 64.3794 61.7044 62.9717C61.7044 62.7756 61.6777 62.5618 61.6242 62.3301C61.5707 62.0985 61.4104 61.9827 61.1431 61.9827C61.0361 61.9827 60.9292 61.9916 60.8223 62.0094C60.7154 62.0272 60.5996 62.0361 60.4748 62.0361C60.3501 62.0361 60.2075 62.0183 60.0471 61.9827C59.9046 61.947 59.8333 61.849 59.8333 61.6886C59.8333 61.5461 59.86 61.4481 59.9135 61.3946C59.9848 61.3411 60.0739 61.3055 60.1808 61.2877C60.3768 61.2342 60.5906 61.1986 60.8223 61.1808C61.054 61.1629 61.2767 61.1451 61.4905 61.1273C62.4885 60.9847 63.4774 60.7976 64.4575 60.566C64.511 60.5482 64.5555 60.5393 64.5912 60.5393C64.6446 60.5214 64.6981 60.5125 64.7516 60.5125C65.0189 60.5125 65.1525 60.6284 65.1525 60.86C65.1525 62.8024 65.1436 64.7536 65.1258 66.7138C65.108 68.6562 65.099 70.6074 65.099 72.5676C65.099 72.7458 65.108 72.9507 65.1258 73.1824C65.1436 73.3962 65.206 73.5922 65.3129 73.7704C65.4198 73.9308 65.598 74.011 65.8475 74.011C66.0435 74.011 66.2395 73.9665 66.4355 73.8774C66.6315 73.7704 66.8008 73.717 66.9434 73.717C67.0325 73.717 67.0949 73.7526 67.1305 73.8239C67.184 73.8774 67.2107 73.9397 67.2107 74.011ZM78.7828 71.0707C78.7828 71.9083 78.6046 72.5943 78.2482 73.1289C77.8918 73.6457 77.4195 74.0466 76.8315 74.3318C76.2434 74.6169 75.6019 74.8129 74.907 74.9198C74.2298 75.0267 73.5527 75.0802 72.8755 75.0802C72.43 75.0802 71.9934 75.0356 71.5657 74.9465C71.1381 74.8574 70.7104 74.7594 70.2827 74.6525C70.1045 74.6169 69.9174 74.5812 69.7214 74.5456C69.5254 74.4921 69.3294 74.4654 69.1333 74.4654C69.0621 74.2159 68.9551 73.8506 68.8126 73.3695C68.6879 72.8705 68.5631 72.3894 68.4384 71.9261C68.3315 71.445 68.278 71.1064 68.278 70.9104C68.278 70.7143 68.3404 70.5896 68.4651 70.5361C68.5898 70.4827 68.7235 70.456 68.8661 70.456C69.0799 70.456 69.2403 70.5361 69.3472 70.6965C69.6145 71.0707 69.8283 71.4628 69.9887 71.8726C70.1491 72.2825 70.3986 72.6656 70.7371 73.022C70.9866 73.2893 71.343 73.5655 71.8063 73.8506C72.2874 74.1179 72.7151 74.2516 73.0893 74.2516C73.8912 74.2516 74.4882 74.0645 74.8802 73.6902C75.2901 73.316 75.495 72.7191 75.495 71.8994C75.495 71.3469 75.3257 70.8836 74.9871 70.5094C74.6486 70.1352 74.212 69.7966 73.6774 69.4937C73.1606 69.1908 72.6082 68.8967 72.0202 68.6116C71.4321 68.3087 70.8708 67.979 70.3362 67.6226C69.8194 67.2662 69.3917 66.8385 69.0532 66.3396C68.7146 65.8228 68.5453 65.1991 68.5453 64.4685C68.5453 63.5597 68.7948 62.8202 69.2937 62.25C69.7927 61.6797 70.4253 61.261 71.1915 60.9937C71.9756 60.7264 72.7597 60.5927 73.5437 60.5927C73.9001 60.5927 74.2476 60.6194 74.5862 60.6729C74.9248 60.7264 75.2634 60.8244 75.6019 60.9669C75.7623 61.0204 75.9761 61.0917 76.2434 61.1808C76.5286 61.252 76.7513 61.2877 76.9117 61.2877C77.1433 61.2877 77.3661 61.261 77.5799 61.2075C77.6156 61.7064 77.669 62.2054 77.7403 62.7044C77.8294 63.2033 77.8829 63.7023 77.9007 64.2012V64.2814C77.9185 64.4596 77.865 64.6111 77.7403 64.7358C77.6334 64.8427 77.4997 64.8962 77.3394 64.8962C77.1612 64.8962 77.0275 64.8605 76.9384 64.7893C76.8671 64.718 76.7959 64.6111 76.7246 64.4685C76.4929 63.9517 76.2613 63.4617 76.0296 62.9984C75.8158 62.5172 75.5217 62.1252 75.1475 61.8223C74.7911 61.5193 74.2744 61.3679 73.5972 61.3679C72.8844 61.3679 72.3587 61.6441 72.0202 62.1965C71.6816 62.7489 71.5123 63.337 71.5123 63.9606C71.5123 64.4596 71.6994 64.8873 72.0736 65.2437C72.4478 65.6001 72.831 65.8852 73.223 66.099C73.7041 66.3485 74.2565 66.6247 74.8802 66.9276C75.5217 67.2306 76.1365 67.5781 76.7246 67.9701C77.3126 68.3621 77.8027 68.8165 78.1947 69.3333C78.5867 69.8323 78.7828 70.4114 78.7828 71.0707ZM97.7151 60.272C97.7151 60.4502 97.6705 60.6194 97.5814 60.7798C97.4923 60.9224 97.3498 60.9937 97.1538 60.9937C96.8686 60.9937 96.6726 60.9313 96.5657 60.8065C96.4766 60.6818 96.3964 60.5036 96.3251 60.272C96.2717 60.0225 96.1826 59.7195 96.0578 59.3631C95.9509 58.9889 95.8262 58.6236 95.6836 58.2672C95.5589 57.893 95.4252 57.6079 95.2827 57.4119C95.2114 57.305 95.1312 57.207 95.0421 57.1179C94.953 57.0109 94.8639 56.9129 94.7748 56.8238C94.6501 56.6635 94.4273 56.5565 94.1066 56.5031C93.7858 56.4318 93.4562 56.3962 93.1176 56.3962C92.779 56.3783 92.5117 56.3694 92.3157 56.3694C92.084 56.3694 91.8346 56.3694 91.5673 56.3694C91.3 56.3694 91.0683 56.4318 90.8723 56.5565C90.6763 56.6635 90.5694 56.8773 90.5515 57.198C90.5337 57.8039 90.5248 58.4276 90.5248 59.0691C90.5248 59.6928 90.5248 60.3165 90.5248 60.9402C90.5248 62.9717 90.5248 65.0031 90.5248 67.0346C90.5426 69.066 90.5515 71.0975 90.5515 73.1289C90.5515 73.3428 90.5783 73.5922 90.6317 73.8774C90.703 74.1625 90.8812 74.305 91.1663 74.305C91.4336 74.305 91.692 74.2961 91.9415 74.2783C92.2088 74.2605 92.4761 74.2516 92.7434 74.2516C92.8859 74.2516 92.9928 74.3139 93.0641 74.4387C93.1354 74.5456 93.171 74.6525 93.171 74.7594C93.171 75.0802 93.0196 75.2406 92.7166 75.2406C92.5206 75.2406 92.3157 75.2317 92.1019 75.2138C91.9058 75.196 91.7098 75.1782 91.5138 75.1604C91.1752 75.1247 90.8366 75.1069 90.4981 75.1069C90.1595 75.1069 89.812 75.1069 89.4556 75.1069C88.8676 75.1069 88.2795 75.1069 87.6915 75.1069C87.1034 75.1069 86.5154 75.1247 85.9273 75.1604C85.7135 75.1782 85.4907 75.196 85.2591 75.2138C85.0452 75.2317 84.8314 75.2406 84.6175 75.2406C84.4572 75.2406 84.3324 75.1871 84.2433 75.0802C84.1542 74.9733 84.1097 74.8485 84.1097 74.706C84.1097 74.51 84.1899 74.3941 84.3502 74.3585C84.5106 74.305 84.6621 74.2783 84.8047 74.2783C85.0007 74.2783 85.1789 74.2872 85.3392 74.305C85.5174 74.305 85.6956 74.305 85.8738 74.305C86.3372 74.305 86.5955 74.1981 86.649 73.9843C86.7203 73.7704 86.7559 73.4675 86.7559 73.0755V58.1603C86.7559 57.4653 86.7203 57.002 86.649 56.7704C86.5777 56.5209 86.3906 56.3962 86.0877 56.3962C85.7847 56.3783 85.2858 56.3694 84.5908 56.3694C84.3592 56.3694 84.0384 56.3783 83.6285 56.3962C83.2365 56.414 82.9425 56.4763 82.7465 56.5833C82.5148 56.708 82.3277 56.8773 82.1851 57.0911C82.0426 57.2871 81.9268 57.5099 81.8377 57.7594C81.6951 58.1692 81.5525 58.588 81.41 59.0157C81.2852 59.4433 81.1516 59.8621 81.009 60.272C80.9378 60.5214 80.8487 60.7085 80.7417 60.8333C80.6348 60.9402 80.4388 60.9937 80.1537 60.9937C79.8151 60.9937 79.6458 60.8155 79.6458 60.4591C79.6458 59.9957 79.6904 59.4701 79.7795 58.882C79.8864 58.2761 79.9488 57.7148 79.9666 57.198C79.9844 56.9129 79.9844 56.6278 79.9666 56.3427C79.9666 56.0398 79.9933 55.7546 80.0468 55.4873C80.0646 55.3626 80.127 55.3002 80.2339 55.3002C80.4299 55.3002 80.6259 55.327 80.8219 55.3804C81.0358 55.4339 81.2407 55.4784 81.4367 55.5141C81.6506 55.5319 81.8644 55.5497 82.0782 55.5675C82.3099 55.5675 82.5415 55.5764 82.7732 55.5943C83.7176 55.6121 84.6977 55.6299 85.7135 55.6477C86.747 55.6477 87.7271 55.6477 88.6537 55.6477C89.7051 55.6477 90.8099 55.6388 91.9682 55.621C93.1265 55.6032 94.2313 55.5943 95.2827 55.5943C95.3896 55.5943 95.4965 55.5943 95.6034 55.5943C95.7282 55.5943 95.844 55.5854 95.9509 55.5675C96.1469 55.5319 96.334 55.4784 96.5122 55.4072C96.7083 55.3359 96.9043 55.3002 97.1003 55.3002C97.1894 55.3002 97.2518 55.3448 97.2874 55.4339C97.3409 55.6834 97.3765 55.9774 97.3943 56.316C97.4121 56.6367 97.43 56.9218 97.4478 57.1713C97.5012 57.6703 97.5547 58.187 97.6082 58.7216C97.6794 59.2384 97.7151 59.7552 97.7151 60.272ZM107.991 65.6179C107.991 65.2615 107.973 64.8338 107.937 64.3349C107.902 63.8359 107.813 63.3548 107.67 62.8915C107.545 62.4103 107.34 62.0094 107.055 61.6886C106.77 61.3679 106.378 61.2075 105.879 61.2075C105.398 61.2075 104.97 61.3679 104.596 61.6886C104.24 61.9916 103.937 62.3836 103.687 62.8647C103.438 63.328 103.242 63.8181 103.099 64.3349C102.957 64.8338 102.85 65.2793 102.778 65.6713C103.081 65.6713 103.375 65.6803 103.661 65.6981C103.963 65.6981 104.258 65.6981 104.543 65.6981C105.701 65.6981 106.85 65.6713 107.991 65.6179ZM111.84 71.5251C111.84 71.5786 111.822 71.6588 111.786 71.7657C111.769 71.8548 111.742 71.9261 111.706 71.9795C111.581 72.2647 111.35 72.5943 111.011 72.9685C110.673 73.3249 110.37 73.6011 110.102 73.7972C108.908 74.706 107.527 75.1604 105.959 75.1604C104.552 75.1604 103.331 74.8664 102.297 74.2783C101.264 73.6724 100.471 72.8349 99.9184 71.7657C99.366 70.6965 99.0898 69.467 99.0898 68.077C99.0898 66.6871 99.3571 65.4308 99.8917 64.3081C100.444 63.1677 101.228 62.2678 102.244 61.6084C103.277 60.9313 104.516 60.5927 105.959 60.5927C107.617 60.5927 108.944 61.0471 109.942 61.9559C110.94 62.8647 111.439 64.1656 111.439 65.8585C111.439 66.3218 111.225 66.5534 110.797 66.5534C110.013 66.5534 109.229 66.5445 108.445 66.5267C107.661 66.5089 106.877 66.5 106.093 66.5C105.523 66.5 104.952 66.5 104.382 66.5C103.812 66.5 103.242 66.5089 102.672 66.5267C102.618 67.0613 102.591 67.6048 102.591 68.1572C102.591 68.6562 102.654 69.2442 102.778 69.9214C102.921 70.5985 103.126 71.2578 103.393 71.8994C103.678 72.5409 104.044 73.0755 104.489 73.5031C104.935 73.913 105.478 74.1179 106.12 74.1179C106.922 74.1179 107.59 74.0021 108.124 73.7704C108.677 73.5388 109.167 73.2091 109.595 72.7814C110.022 72.3538 110.459 71.8459 110.904 71.2578C110.958 71.1866 111.011 71.1331 111.065 71.0975C111.136 71.044 111.216 71.0173 111.305 71.0173C111.43 71.0173 111.546 71.0707 111.653 71.1777C111.777 71.2668 111.84 71.3826 111.84 71.5251ZM126.593 71.445C126.593 71.5162 126.575 71.5964 126.539 71.6855C126.503 71.7568 126.468 71.8281 126.432 71.8994C126.058 72.5943 125.55 73.1824 124.909 73.6635C124.285 74.1268 123.59 74.4832 122.824 74.7327C122.057 74.9822 121.291 75.1069 120.525 75.1069C119.866 75.1069 119.144 75 118.36 74.7862C117.576 74.5723 116.899 74.2694 116.328 73.8774C115.402 73.2002 114.716 72.3627 114.27 71.3648C113.842 70.3669 113.629 69.3066 113.629 68.1839C113.629 66.794 113.896 65.5288 114.431 64.3883C114.965 63.23 115.74 62.3034 116.756 61.6084C117.79 60.9135 119.037 60.566 120.498 60.566C121.033 60.566 121.541 60.6462 122.022 60.8065C122.164 60.8422 122.387 60.9402 122.69 61.1006C123.011 61.2431 123.323 61.3768 123.626 61.5015C123.928 61.6263 124.116 61.6886 124.187 61.6886C124.383 61.6886 124.57 61.6173 124.748 61.4748C124.944 61.3144 125.096 61.2342 125.203 61.2342C125.309 61.2342 125.363 61.3055 125.363 61.4481C125.399 61.6263 125.416 61.8223 125.416 62.0361C125.416 62.2321 125.425 62.4281 125.443 62.6242C125.461 63.0518 125.488 63.4795 125.523 63.9072C125.577 64.3349 125.604 64.7625 125.604 65.1902C125.604 65.4219 125.568 65.6268 125.497 65.805C125.425 65.9832 125.256 66.0723 124.989 66.0723C124.811 66.0723 124.677 66.0277 124.588 65.9386C124.499 65.8495 124.436 65.7337 124.401 65.5912C124.187 64.9496 123.964 64.326 123.732 63.7201C123.519 63.0964 123.153 62.5529 122.637 62.0896C122.441 61.8936 122.155 61.7154 121.781 61.555C121.425 61.3768 121.104 61.2877 120.819 61.2877C120.07 61.2877 119.456 61.5282 118.975 62.0094C118.493 62.4905 118.11 63.0875 117.825 63.8003C117.54 64.5131 117.335 65.2526 117.21 66.0188C117.103 66.7673 117.05 67.4266 117.05 67.9968C117.05 68.5314 117.112 69.1551 117.237 69.8679C117.362 70.5629 117.567 71.24 117.852 71.8994C118.137 72.5409 118.511 73.0844 118.975 73.5299C119.438 73.9575 120.017 74.1714 120.712 74.1714C121.371 74.1714 122.04 74.0288 122.717 73.7437C123.394 73.4586 123.964 73.0844 124.427 72.6211C124.57 72.4785 124.713 72.327 124.855 72.1667C125.015 72.0063 125.158 71.837 125.283 71.6588C125.336 71.5697 125.39 71.4895 125.443 71.4182C125.497 71.3291 125.559 71.2489 125.63 71.1777C125.773 71.0351 125.915 70.9638 126.058 70.9638C126.2 70.9638 126.325 71.0084 126.432 71.0975C126.539 71.1866 126.593 71.3024 126.593 71.445ZM143.326 74.6258C143.326 74.9465 143.175 75.1069 142.872 75.1069C142.622 75.1069 142.364 75.0891 142.097 75.0535C141.847 75.0356 141.598 75.0178 141.348 75C140.992 74.9822 140.627 74.9822 140.252 75C139.896 75 139.54 75 139.183 75C138.756 75 138.328 75.0178 137.9 75.0535C137.49 75.1069 137.08 75.1336 136.671 75.1336C136.564 75.1336 136.457 75.0891 136.35 75C136.261 74.8931 136.216 74.7951 136.216 74.706C136.216 74.403 136.368 74.2516 136.671 74.2516C136.849 74.2516 137.018 74.2605 137.179 74.2783C137.339 74.2961 137.508 74.305 137.686 74.305C137.954 74.305 138.087 74.1625 138.087 73.8774C138.087 72.5052 138.087 71.142 138.087 69.7877C138.105 68.4156 138.114 67.0524 138.114 65.6981C138.114 65.2169 138.096 64.6913 138.061 64.121C138.025 63.533 137.918 63.0162 137.74 62.5707C137.579 62.1609 137.375 61.8846 137.125 61.7421C136.876 61.5995 136.537 61.5283 136.109 61.5283C135.717 61.5283 135.307 61.6708 134.88 61.9559C134.47 62.241 134.105 62.5885 133.784 62.9984C133.463 63.3904 133.223 63.7557 133.062 64.0943V73.9843C133.062 74.1803 133.187 74.2783 133.436 74.2783C133.615 74.2783 133.784 74.2694 133.944 74.2516C134.105 74.2159 134.274 74.1981 134.452 74.1981C134.541 74.1981 134.63 74.2516 134.719 74.3585C134.826 74.4476 134.88 74.5367 134.88 74.6258C134.88 74.9465 134.728 75.1069 134.425 75.1069C134.176 75.1069 133.917 75.0891 133.65 75.0535C133.401 75.0356 133.151 75.0267 132.902 75.0267C132.724 75.0267 132.545 75.0267 132.367 75.0267C132.189 75.0267 132.002 75.0267 131.806 75.0267H130.389C130.051 75.0267 129.712 75.0445 129.373 75.0802C129.035 75.1158 128.696 75.1336 128.358 75.1336C128.073 75.1336 127.93 74.9733 127.93 74.6525C127.93 74.3674 128.082 74.2248 128.384 74.2248C128.563 74.2248 128.732 74.2337 128.892 74.2516C129.053 74.2694 129.222 74.2783 129.4 74.2783C129.614 74.2783 129.721 74.1803 129.721 73.9843V56.9575C129.721 56.7793 129.694 56.5654 129.641 56.316C129.605 56.0487 129.463 55.915 129.213 55.915C128.981 55.915 128.741 55.9328 128.491 55.9685C128.26 56.0041 128.028 56.0219 127.796 56.0219C127.707 56.0219 127.627 55.9774 127.556 55.8883C127.485 55.7992 127.449 55.7101 127.449 55.621C127.449 55.4428 127.565 55.3359 127.796 55.3002C128.527 55.1399 129.258 55.0151 129.988 54.926C130.737 54.8191 131.467 54.6587 132.18 54.4449C132.323 54.3914 132.465 54.3647 132.608 54.3647C132.857 54.3647 132.982 54.4805 132.982 54.7122V62.4638C133.499 61.9827 134.105 61.555 134.8 61.1808C135.495 60.8065 136.198 60.6194 136.911 60.6194C138.123 60.6194 139.058 60.7709 139.718 61.0738C140.395 61.3768 140.867 61.8757 141.134 62.5707C141.42 63.2657 141.562 64.2101 141.562 65.4041V73.8774C141.562 74.1447 141.687 74.2783 141.936 74.2783C142.097 74.2783 142.257 74.2694 142.418 74.2516C142.578 74.2159 142.738 74.1981 142.899 74.1981C143.023 74.1981 143.121 74.2427 143.193 74.3318C143.282 74.4209 143.326 74.5189 143.326 74.6258Z" fill="#5E0067"/>
<path d="M60 49L68.6603 40.75H51.3397L60 49Z" fill="#5E0067"/>
</svg>
