<svg width="48" height="48" viewBox="0 0 48 48" fill="none" xmlns="http://www.w3.org/2000/svg">
<path d="M38 0C43.5227 0.000175233 48 4.47726 48 10V38C47.9998 43.5226 43.5226 47.9998 38 48H10C4.4773 48 0.000228837 43.5226 0 38V10C0 4.47715 4.47715 0 10 0H38ZM24.2373 4.27734C18.704 4.27735 18.0074 4.30118 15.833 4.39258C13.6579 4.48881 12.1759 4.81171 10.8779 5.28809C9.51589 5.77006 8.28242 6.52816 7.26465 7.50879C6.22537 8.46905 5.42193 9.63292 4.91113 10.918C4.40631 12.1401 4.06136 13.5401 3.96191 15.585C3.86501 17.642 3.83984 18.2969 3.83984 23.5273C3.83985 28.7524 3.86503 29.407 3.96191 31.459C4.06391 33.5088 4.40624 34.9072 4.91113 36.1318C5.43387 37.3972 6.12999 38.4705 7.26465 39.541C8.39672 40.6115 9.53387 41.2709 10.875 41.7617C12.1754 42.2381 13.6547 42.5624 15.8271 42.6562C18.0048 42.7477 18.6991 42.7715 24.2402 42.7715C29.7808 42.7715 30.472 42.7477 32.6494 42.6562C34.8195 42.56 36.3066 42.2381 37.6045 41.7617C38.9655 41.2795 40.1978 40.5212 41.2148 39.541C42.3495 38.4705 43.0456 37.3972 43.5684 36.1318C44.0707 34.9072 44.4156 33.5088 44.5176 31.459C44.6145 29.407 44.6396 28.7522 44.6396 23.5244C44.6396 18.2969 44.6145 17.6421 44.5176 15.5879C44.4156 13.5406 44.0706 12.1401 43.5684 10.918C43.0575 9.63287 42.2542 8.46907 41.2148 7.50879C40.197 6.52813 38.9637 5.77005 37.6016 5.28809C36.3011 4.81174 34.8173 4.48643 32.6475 4.39258C30.4701 4.30117 29.7786 4.27735 24.2373 4.27734ZM22.4111 7.74609H24.2422C29.689 7.74609 30.3347 7.76359 32.4844 7.85742C34.4731 7.94166 35.5544 8.25633 36.2734 8.51855C37.2245 8.8674 37.9052 9.28635 38.6191 9.95996C39.3331 10.6336 39.7748 11.274 40.1445 12.1738C40.425 12.8499 40.7565 13.87 40.8457 15.7461C40.9452 17.7743 40.9648 18.3831 40.9648 23.5195C40.9648 28.6562 40.9452 29.2677 40.8457 31.2959C40.7565 33.172 40.4224 34.1897 40.1445 34.8682C39.8152 35.7028 39.2926 36.4579 38.6162 37.0791C37.9022 37.7527 37.2242 38.1697 36.2705 38.5186C35.5566 38.7832 34.4754 39.096 32.4844 39.1826C30.3347 39.274 29.689 39.2949 24.2422 39.2949C18.7956 39.2949 18.1477 39.274 15.998 39.1826C14.0096 39.096 12.931 38.7832 12.2119 38.5186C11.3266 38.2088 10.5247 37.7167 9.86523 37.0791C9.18789 36.4575 8.66566 35.7017 8.33594 34.8662C8.05799 34.1901 7.72401 33.1696 7.63477 31.293C7.53788 29.265 7.5166 28.6559 7.5166 23.5146C7.5166 18.3735 7.53787 17.7694 7.63477 15.7412C7.72658 13.8647 8.0574 12.8445 8.33789 12.166C8.70757 11.2688 9.15147 10.6266 9.86523 9.95312C10.5792 9.27947 11.2582 8.86253 12.2119 8.51367C12.931 8.24906 14.0096 7.93622 15.998 7.84961C17.8799 7.76781 18.6094 7.74459 22.4111 7.74219V7.74609ZM24.2422 13.6406C22.8527 13.6202 21.4726 13.8611 20.1826 14.3486C18.8926 14.8362 17.7178 15.5616 16.7275 16.4814C15.7374 17.4013 14.9508 18.4978 14.4141 19.707C13.8773 20.9163 13.6006 22.2144 13.6006 23.5254C13.6006 24.8366 13.8772 26.1353 14.4141 27.3447C14.9508 28.554 15.7374 29.6505 16.7275 30.5703C17.7179 31.4902 18.8925 32.2156 20.1826 32.7031C21.4726 33.1907 22.8527 33.4306 24.2422 33.4102C26.9925 33.3697 29.6162 32.3103 31.5459 30.4609C33.4753 28.6116 34.5566 26.1204 34.5566 23.5254C34.5565 20.9304 33.4755 18.4391 31.5459 16.5898C29.6162 14.7405 26.9925 13.6811 24.2422 13.6406ZM24.2422 17.1084C25.1352 17.1084 26.0196 17.2742 26.8447 17.5967C27.6698 17.9191 28.4202 18.3915 29.0518 18.9873C29.6832 19.5831 30.1837 20.2909 30.5254 21.0693C30.8671 21.8477 31.043 22.6819 31.043 23.5244C31.043 24.3671 30.8672 25.202 30.5254 25.9805C30.1837 26.7587 29.683 27.4659 29.0518 28.0615C28.4202 28.6574 27.6698 29.1307 26.8447 29.4531C26.0197 29.7755 25.1352 29.9414 24.2422 29.9414C22.4386 29.9414 20.7089 29.2648 19.4336 28.0615C18.1582 26.8582 17.4414 25.2262 17.4414 23.5244C17.4414 21.8227 18.1582 20.1906 19.4336 18.9873C20.7089 17.784 22.4386 17.1084 24.2422 17.1084ZM35.1309 10.9414C34.8095 10.9414 34.4912 11.0012 34.1943 11.1172C33.8973 11.2333 33.6267 11.4037 33.3994 11.6182C33.1723 11.8325 32.9921 12.0871 32.8691 12.3672C32.7462 12.6473 32.6827 12.9478 32.6826 13.251C32.6826 13.5542 32.7462 13.8546 32.8691 14.1348C32.9922 14.415 33.1721 14.6703 33.3994 14.8848C33.6267 15.0992 33.8973 15.2687 34.1943 15.3848C34.4913 15.5008 34.8094 15.5605 35.1309 15.5605C35.7799 15.5605 36.4023 15.3177 36.8613 14.8848C37.3204 14.4516 37.5791 13.8635 37.5791 13.251C37.579 12.6385 37.3203 12.0512 36.8613 11.6182C36.4023 11.1851 35.78 10.9414 35.1309 10.9414Z" fill="black"/>
</svg>
