<svg width="48" height="48" viewBox="0 0 48 48" fill="none" xmlns="http://www.w3.org/2000/svg">
<path d="M35.8193 0.00390625C36.0822 0.00390984 36.6517 0.0115605 37.0918 0.0273438C38.1691 0.066014 39.5599 0.152115 40.1934 0.28125C41.1449 0.475345 42.0434 0.767439 42.791 1.14941C43.6755 1.60137 44.4676 2.17832 45.1514 2.86328C45.8337 3.54682 46.4083 4.33849 46.8584 5.22168C47.2415 5.97338 47.5343 6.87777 47.7275 7.83496C47.8541 8.46205 47.9384 9.8417 47.9766 10.9121C47.9923 11.3528 48 11.9228 48 12.1846L47.9961 35.8193C47.9961 36.0821 47.9884 36.6517 47.9727 37.0918C47.934 38.169 47.8479 39.56 47.7188 40.1934C47.5246 41.145 47.2316 42.0434 46.8496 42.791C46.3977 43.6753 45.8216 44.4677 45.1367 45.1514C44.4532 45.8338 43.6614 46.4082 42.7783 46.8584C42.0267 47.2414 41.1223 47.5343 40.165 47.7275C39.538 47.8541 38.1583 47.9385 37.0879 47.9766C36.6472 47.9923 36.0772 48 35.8154 48L12.1807 47.9961C11.9179 47.9961 11.3484 47.9884 10.9082 47.9727C9.83092 47.934 8.44004 47.8478 7.80664 47.7188C6.85506 47.5246 5.95655 47.2325 5.20898 46.8506C4.3245 46.3986 3.53241 45.8217 2.84863 45.1367C2.16622 44.4532 1.59171 43.6615 1.1416 42.7783C0.758461 42.0266 0.465718 41.1222 0.272461 40.165C0.145909 39.538 0.0615444 38.1583 0.0234375 37.0879C0.00778493 36.6473 0 36.0772 0 35.8154L0.00390625 12.1807C0.00390972 11.9179 0.0115604 11.3483 0.0273438 10.9082C0.066014 9.83092 0.151138 8.43999 0.280273 7.80664C0.474371 6.855 0.767415 5.95664 1.14941 5.20898C1.60137 4.32453 2.17832 3.53242 2.86328 2.84863C3.54682 2.16626 4.33854 1.59175 5.22168 1.1416C5.97338 0.758556 6.87777 0.465718 7.83496 0.272461C8.462 0.145862 9.84174 0.0614974 10.9121 0.0234375C11.3528 0.00773896 11.9229 0 12.1846 0L35.8193 0.00390625ZM24.541 6.30957C15.0538 6.30957 7.33192 14.0283 7.32812 23.5156C7.32696 26.5481 8.1199 29.508 9.62598 32.1172L7.18359 41.0342L16.3086 38.6416C18.8227 40.0123 21.6534 40.7341 24.5342 40.7354H24.541C34.0272 40.7354 41.7489 33.0165 41.7529 23.5293C41.7548 18.9317 39.9666 14.6078 36.7168 11.3555C33.4672 8.10322 29.1454 6.31145 24.541 6.30957ZM24.5469 9.21582C28.3679 9.21735 31.9601 10.707 34.6611 13.4102C37.362 16.1133 38.8481 19.707 38.8467 23.5283C38.8434 31.4142 32.4261 37.8301 24.541 37.8301H24.5352C21.9681 37.8291 19.4504 37.139 17.2539 35.8359L16.7314 35.5264L11.3164 36.9463L12.7617 31.6689L12.4219 31.1279C10.9898 28.8509 10.2333 26.2188 10.2344 23.5166C10.2375 15.6312 16.6556 9.21582 24.5469 9.21582ZM18.4473 15.5693C18.1606 15.5693 17.694 15.677 17.2998 16.1074C16.9054 16.538 15.7949 17.5786 15.7949 19.6943C15.7951 21.8102 17.3355 23.8543 17.5508 24.1416C17.7658 24.4286 20.5841 28.7715 24.8984 30.6338C25.9242 31.0766 26.7251 31.3409 27.3496 31.5391C28.3798 31.8662 29.3175 31.8206 30.0586 31.71C30.8849 31.5865 32.6034 30.6693 32.9619 29.665C33.32 28.6615 33.3202 27.8013 33.2129 27.6211C33.1054 27.4418 32.8186 27.3334 32.3887 27.1182C31.9585 26.903 29.8435 25.8632 29.4492 25.7197C29.0552 25.5763 28.7682 25.5043 28.4814 25.9346C28.1948 26.365 27.3711 27.3342 27.1201 27.6211C26.8694 27.9078 26.6183 27.9436 26.1885 27.7285C25.7584 27.5133 24.3722 27.0594 22.7295 25.5947C21.4512 24.4549 20.5879 23.0469 20.3369 22.6162C20.0861 22.1858 20.3101 21.9527 20.5254 21.7383C20.7188 21.5457 20.9558 21.2364 21.1709 20.9854C21.3859 20.7343 21.4572 20.5545 21.6006 20.2676C21.7438 19.9808 21.6729 19.7298 21.5654 19.5146C21.458 19.2995 20.5976 17.1831 20.2393 16.3223C19.8903 15.4841 19.5354 15.5971 19.2715 15.584C19.021 15.5715 18.7339 15.5693 18.4473 15.5693Z" fill="url(#paint0_linear_6_33)"/>
<defs>
<linearGradient id="paint0_linear_6_33" x1="24" y1="0" x2="24" y2="48" gradientUnits="userSpaceOnUse">
<stop stop-color="#61FD7D"/>
<stop offset="1" stop-color="#2BB826"/>
</linearGradient>
</defs>
</svg>
