<svg width="48" height="48" viewBox="0 0 48 48" fill="none" xmlns="http://www.w3.org/2000/svg">
<path d="M43.4055 0H4.59453C2.05704 0 0 2.05704 0 4.59453V43.4055C0 45.943 2.05704 48 4.59453 48H43.4055C45.943 48 48 45.943 48 43.4055V4.59453C48 2.05704 45.943 0 43.4055 0Z" fill="black"/>
<path d="M36.3429 19.4341V23.9454C35.5551 23.8683 34.5346 23.6902 33.4033 23.2742C31.9258 22.7315 30.8266 21.9896 30.1075 21.4148V30.5347L30.0901 30.5063C30.1029 30.6862 30.1075 30.8708 30.1075 31.0563C30.1075 35.586 26.4315 39.2727 21.9109 39.2727C17.3903 39.2727 13.7143 35.586 13.7143 31.0563C13.7143 26.5266 17.3903 22.838 21.9109 22.838C22.3524 22.838 22.7875 22.8738 23.2116 22.9418V27.3888C22.804 27.2419 22.3671 27.1639 21.9109 27.1639C19.7711 27.1639 18.0288 28.9085 18.0288 31.0554C18.0288 33.2022 19.7711 34.9469 21.9109 34.9469C24.0507 34.9469 25.793 33.2004 25.793 31.0554C25.793 30.9746 25.7912 30.8947 25.7857 30.8139V13.0909H30.2843C30.3008 13.4729 30.3163 13.8567 30.3328 14.2396C30.3631 14.9917 30.6305 15.7134 31.095 16.3047C31.6418 16.9999 32.447 17.807 33.5801 18.4516C34.64 19.054 35.6366 19.3129 36.3419 19.4341H36.3429Z" fill="#FF004F"/>
<path d="M34.9714 15.246V19.8828C34.1598 19.8035 33.1084 19.6204 31.9428 19.1929C30.4205 18.6351 29.288 17.8725 28.5471 17.2817V26.6553L28.5292 26.6261C28.5424 26.8111 28.5471 27.0008 28.5471 27.1914C28.5471 31.8471 24.7597 35.6364 20.1021 35.6364C15.4445 35.6364 11.6571 31.8471 11.6571 27.1914C11.6571 22.5357 15.4445 18.7446 20.1021 18.7446C20.557 18.7446 21.0053 18.7814 21.4423 18.8512V23.422C21.0223 23.2709 20.5721 23.1907 20.1021 23.1907C17.8974 23.1907 16.1024 24.9839 16.1024 27.1905C16.1024 29.397 17.8974 31.1902 20.1021 31.1902C22.3068 31.1902 24.1019 29.3951 24.1019 27.1905C24.1019 27.1074 24.1 27.0253 24.0943 26.9423V8.72728H28.7292C28.7462 9.11989 28.7623 9.51439 28.7793 9.90795C28.8104 10.6809 29.086 11.4227 29.5654 12.0305C30.1289 12.745 30.9585 13.5745 32.1259 14.2371C33.2179 14.8562 34.2447 15.1223 34.9714 15.2469V15.246Z" fill="#00F7EF"/>
<path d="M35.6571 17.4278V22.0646C34.8694 21.9853 33.8489 21.8022 32.7176 21.3747C31.2401 20.8169 30.1408 20.0543 29.4218 19.4635V28.8372L29.4043 28.8079C29.4172 28.9929 29.4218 29.1826 29.4218 29.3732C29.4218 34.0289 25.7457 37.8182 21.2252 37.8182C16.7046 37.8182 13.0286 34.0289 13.0286 29.3732C13.0286 24.7175 16.7046 20.9264 21.2252 20.9264C21.6667 20.9264 22.1018 20.9632 22.5259 21.033V25.6038C22.1183 25.4528 21.6813 25.3725 21.2252 25.3725C19.0853 25.3725 17.343 27.1657 17.343 29.3723C17.343 31.5788 19.0853 33.372 21.2252 33.372C23.365 33.372 25.1073 31.577 25.1073 29.3723C25.1073 29.2892 25.1054 29.2071 25.0999 29.1241V10.9091H29.5985C29.615 11.3017 29.6306 11.6962 29.6471 12.0898C29.6773 12.8627 29.9448 13.6045 30.4092 14.2123C30.9561 14.9268 31.7613 15.7563 32.8944 16.4189C33.9542 17.038 34.9509 17.3041 35.6562 17.4287L35.6571 17.4278Z" fill="white"/>
</svg>
