<svg width="24" height="28" viewBox="0 0 24 28" fill="none" xmlns="http://www.w3.org/2000/svg">
<path d="M23.9714 7.24598V11.8828C23.1598 11.8035 22.1084 11.6204 20.9428 11.1929C19.4205 10.6351 18.288 9.87252 17.5471 9.28171V18.6553L17.5292 18.6261C17.5424 18.8111 17.5471 19.0008 17.5471 19.1914C17.5471 23.8471 13.7597 27.6364 9.10211 27.6364C4.44454 27.6364 0.657135 23.8471 0.657135 19.1914C0.657135 14.5357 4.44454 10.7446 9.10211 10.7446C9.55701 10.7446 10.0053 10.7814 10.4423 10.8512V15.422C10.0223 15.2709 9.57211 15.1907 9.10211 15.1907C6.89743 15.1907 5.10236 16.9839 5.10236 19.1905C5.10236 21.397 6.89743 23.1902 9.10211 23.1902C11.3068 23.1902 13.1019 21.3951 13.1019 19.1905C13.1019 19.1074 13.1 19.0253 13.0943 18.9423V0.72728H17.7292C17.7462 1.11989 17.7623 1.51439 17.7793 1.90795C17.8104 2.68091 18.086 3.42272 18.5654 4.03051C19.1289 4.74496 19.9585 5.57454 21.1259 6.23707C22.2179 6.85619 23.2447 7.12234 23.9714 7.24692V7.24598Z" fill="#00F7EF"/>
</svg>
