<svg width="23" height="28" viewBox="0 0 23 28" fill="none" xmlns="http://www.w3.org/2000/svg">
<path d="M22.6571 7.42778V12.0646C21.8694 11.9853 20.8489 11.8022 19.7176 11.3747C18.2401 10.8169 17.1408 10.0543 16.4218 9.46352V18.8372L16.4043 18.8079C16.4172 18.9929 16.4218 19.1826 16.4218 19.3732C16.4218 24.0289 12.7457 27.8182 8.22516 27.8182C3.70457 27.8182 0.0285645 24.0289 0.0285645 19.3732C0.0285645 14.7175 3.70457 10.9264 8.22516 10.9264C8.66668 10.9264 9.1018 10.9632 9.52592 11.033V15.6038C9.11828 15.4528 8.68134 15.3725 8.22516 15.3725C6.08532 15.3725 4.34304 17.1657 4.34304 19.3723C4.34304 21.5788 6.08532 23.372 8.22516 23.372C10.365 23.372 12.1073 21.577 12.1073 19.3723C12.1073 19.2892 12.1054 19.2071 12.0999 19.1241V0.909088H16.5985C16.615 1.3017 16.6306 1.6962 16.6471 2.08976C16.6773 2.86271 16.9448 3.60453 17.4092 4.21232C17.9561 4.92676 18.7613 5.75635 19.8944 6.41888C20.9542 7.038 21.9509 7.30415 22.6562 7.42873L22.6571 7.42778Z" fill="white"/>
</svg>
