<svg width="24" height="27" viewBox="0 0 24 27" fill="none" xmlns="http://www.w3.org/2000/svg">
<path d="M23.3429 6.43412V10.9454C22.5551 10.8683 21.5346 10.6902 20.4033 10.2742C18.9258 9.73152 17.8266 8.98958 17.1075 8.41476V17.5347L17.0901 17.5063C17.1029 17.6862 17.1075 17.8708 17.1075 18.0563C17.1075 22.586 13.4315 26.2727 8.91089 26.2727C4.3903 26.2727 0.714294 22.586 0.714294 18.0563C0.714294 13.5266 4.3903 9.83804 8.91089 9.83804C9.35241 9.83804 9.78752 9.87385 10.2116 9.9418V14.3888C9.80401 14.2419 9.36707 14.1639 8.91089 14.1639C6.77105 14.1639 5.02877 15.9085 5.02877 18.0554C5.02877 20.2022 6.77105 21.9469 8.91089 21.9469C11.0507 21.9469 12.793 20.2004 12.793 18.0554C12.793 17.9746 12.7912 17.8947 12.7857 17.8139V0.0909042H17.2843C17.3008 0.472893 17.3163 0.856718 17.3328 1.23963C17.3631 1.99166 17.6305 2.7134 18.095 3.30475C18.6418 3.99986 19.447 4.80699 20.5801 5.4516C21.64 6.05396 22.6366 6.31291 23.3419 6.43412H23.3429Z" fill="#FF004F"/>
</svg>
